<mxfile host="app.diagrams.net" modified="2024-06-21T05:15:50.638Z" agent="Mozilla/5.0 (Macintosh; Intel Mac OS X 10_15_7) AppleWebKit/605.1.15 (KHTML, like Gecko) Version/17.5 Safari/605.1.15" etag="GJvn6r9iPDqKASwuPu0H" version="24.6.0" type="device">
  <diagram name="Page-1" id="ckQth6polQerAAjxJwCc">
    <mxGraphModel dx="1811" dy="667" grid="1" gridSize="10" guides="1" tooltips="1" connect="1" arrows="1" fold="1" page="1" pageScale="1" pageWidth="827" pageHeight="1169" math="0" shadow="0">
      <root>
        <mxCell id="0" />
        <mxCell id="1" parent="0" />
        <mxCell id="n6n7o-bAXKP4Zn80dGMA-201" value="" style="rounded=0;whiteSpace=wrap;html=1;" vertex="1" parent="1">
          <mxGeometry x="-40" y="40" width="1110" height="740" as="geometry" />
        </mxCell>
        <mxCell id="n6n7o-bAXKP4Zn80dGMA-12" value="" style="whiteSpace=wrap;html=1;aspect=fixed;fillColor=#dae8fc;strokeColor=#6c8ebf;fontStyle=1" vertex="1" parent="1">
          <mxGeometry x="80" y="80" width="320" height="320" as="geometry" />
        </mxCell>
        <mxCell id="n6n7o-bAXKP4Zn80dGMA-2" value="" style="whiteSpace=wrap;html=1;aspect=fixed;fillColor=#f8cecc;strokeColor=#b85450;fontStyle=1" vertex="1" parent="1">
          <mxGeometry x="120" y="120" width="80" height="80" as="geometry" />
        </mxCell>
        <mxCell id="n6n7o-bAXKP4Zn80dGMA-3" value="" style="whiteSpace=wrap;html=1;aspect=fixed;fillColor=#f8cecc;strokeColor=#b85450;fontStyle=1" vertex="1" parent="1">
          <mxGeometry x="200" y="120" width="80" height="80" as="geometry" />
        </mxCell>
        <mxCell id="n6n7o-bAXKP4Zn80dGMA-4" value="" style="whiteSpace=wrap;html=1;aspect=fixed;fillColor=#f8cecc;strokeColor=#b85450;fontStyle=1" vertex="1" parent="1">
          <mxGeometry x="280" y="120" width="80" height="80" as="geometry" />
        </mxCell>
        <mxCell id="n6n7o-bAXKP4Zn80dGMA-5" value="" style="whiteSpace=wrap;html=1;aspect=fixed;fillColor=#f8cecc;strokeColor=#b85450;fontStyle=1" vertex="1" parent="1">
          <mxGeometry x="120" y="200" width="80" height="80" as="geometry" />
        </mxCell>
        <mxCell id="n6n7o-bAXKP4Zn80dGMA-6" value="" style="whiteSpace=wrap;html=1;aspect=fixed;fillColor=#f8cecc;strokeColor=#b85450;fontStyle=1" vertex="1" parent="1">
          <mxGeometry x="200" y="200" width="80" height="80" as="geometry" />
        </mxCell>
        <mxCell id="n6n7o-bAXKP4Zn80dGMA-7" value="" style="whiteSpace=wrap;html=1;aspect=fixed;fillColor=#f8cecc;strokeColor=#b85450;fontStyle=1" vertex="1" parent="1">
          <mxGeometry x="280" y="200" width="80" height="80" as="geometry" />
        </mxCell>
        <mxCell id="n6n7o-bAXKP4Zn80dGMA-8" value="" style="whiteSpace=wrap;html=1;aspect=fixed;fillColor=#f8cecc;strokeColor=#b85450;fontStyle=1" vertex="1" parent="1">
          <mxGeometry x="120" y="280" width="80" height="80" as="geometry" />
        </mxCell>
        <mxCell id="n6n7o-bAXKP4Zn80dGMA-9" value="" style="whiteSpace=wrap;html=1;aspect=fixed;fillColor=#f8cecc;strokeColor=#b85450;fontStyle=1" vertex="1" parent="1">
          <mxGeometry x="200" y="280" width="80" height="80" as="geometry" />
        </mxCell>
        <mxCell id="n6n7o-bAXKP4Zn80dGMA-10" value="" style="whiteSpace=wrap;html=1;aspect=fixed;fillColor=#f8cecc;strokeColor=#b85450;fontStyle=1" vertex="1" parent="1">
          <mxGeometry x="280" y="280" width="80" height="80" as="geometry" />
        </mxCell>
        <mxCell id="n6n7o-bAXKP4Zn80dGMA-13" value="" style="whiteSpace=wrap;html=1;aspect=fixed;fillColor=#dae8fc;strokeColor=#6c8ebf;fontStyle=1" vertex="1" parent="1">
          <mxGeometry x="400" y="80" width="320" height="320" as="geometry" />
        </mxCell>
        <mxCell id="n6n7o-bAXKP4Zn80dGMA-14" value="" style="whiteSpace=wrap;html=1;aspect=fixed;fillColor=#f8cecc;strokeColor=#b85450;fontStyle=1" vertex="1" parent="1">
          <mxGeometry x="440" y="120" width="80" height="80" as="geometry" />
        </mxCell>
        <mxCell id="n6n7o-bAXKP4Zn80dGMA-15" value="" style="whiteSpace=wrap;html=1;aspect=fixed;fillColor=#f8cecc;strokeColor=#b85450;fontStyle=1" vertex="1" parent="1">
          <mxGeometry x="520" y="120" width="80" height="80" as="geometry" />
        </mxCell>
        <mxCell id="n6n7o-bAXKP4Zn80dGMA-16" value="" style="whiteSpace=wrap;html=1;aspect=fixed;fillColor=#f8cecc;strokeColor=#b85450;fontStyle=1" vertex="1" parent="1">
          <mxGeometry x="600" y="120" width="80" height="80" as="geometry" />
        </mxCell>
        <mxCell id="n6n7o-bAXKP4Zn80dGMA-17" value="" style="whiteSpace=wrap;html=1;aspect=fixed;fillColor=#f8cecc;strokeColor=#b85450;fontStyle=1" vertex="1" parent="1">
          <mxGeometry x="440" y="200" width="80" height="80" as="geometry" />
        </mxCell>
        <mxCell id="n6n7o-bAXKP4Zn80dGMA-18" value="" style="whiteSpace=wrap;html=1;aspect=fixed;fillColor=#f8cecc;strokeColor=#b85450;fontStyle=1" vertex="1" parent="1">
          <mxGeometry x="520" y="200" width="80" height="80" as="geometry" />
        </mxCell>
        <mxCell id="n6n7o-bAXKP4Zn80dGMA-19" value="" style="whiteSpace=wrap;html=1;aspect=fixed;fillColor=#f8cecc;strokeColor=#b85450;fontStyle=1" vertex="1" parent="1">
          <mxGeometry x="600" y="200" width="80" height="80" as="geometry" />
        </mxCell>
        <mxCell id="n6n7o-bAXKP4Zn80dGMA-20" value="" style="whiteSpace=wrap;html=1;aspect=fixed;fillColor=#f8cecc;strokeColor=#b85450;fontStyle=1" vertex="1" parent="1">
          <mxGeometry x="440" y="280" width="80" height="80" as="geometry" />
        </mxCell>
        <mxCell id="n6n7o-bAXKP4Zn80dGMA-21" value="" style="whiteSpace=wrap;html=1;aspect=fixed;fillColor=#f8cecc;strokeColor=#b85450;fontStyle=1" vertex="1" parent="1">
          <mxGeometry x="520" y="280" width="80" height="80" as="geometry" />
        </mxCell>
        <mxCell id="n6n7o-bAXKP4Zn80dGMA-22" value="" style="whiteSpace=wrap;html=1;aspect=fixed;fillColor=#f8cecc;strokeColor=#b85450;fontStyle=1" vertex="1" parent="1">
          <mxGeometry x="600" y="280" width="80" height="80" as="geometry" />
        </mxCell>
        <mxCell id="n6n7o-bAXKP4Zn80dGMA-23" value="" style="whiteSpace=wrap;html=1;aspect=fixed;fillColor=#dae8fc;strokeColor=#6c8ebf;fontStyle=1" vertex="1" parent="1">
          <mxGeometry x="720" y="80" width="320" height="320" as="geometry" />
        </mxCell>
        <mxCell id="n6n7o-bAXKP4Zn80dGMA-24" value="" style="whiteSpace=wrap;html=1;aspect=fixed;fillColor=#f8cecc;strokeColor=#b85450;fontStyle=1" vertex="1" parent="1">
          <mxGeometry x="760" y="120" width="80" height="80" as="geometry" />
        </mxCell>
        <mxCell id="n6n7o-bAXKP4Zn80dGMA-25" value="" style="whiteSpace=wrap;html=1;aspect=fixed;fillColor=#f8cecc;strokeColor=#b85450;fontStyle=1" vertex="1" parent="1">
          <mxGeometry x="840" y="120" width="80" height="80" as="geometry" />
        </mxCell>
        <mxCell id="n6n7o-bAXKP4Zn80dGMA-26" value="" style="whiteSpace=wrap;html=1;aspect=fixed;fillColor=#f8cecc;strokeColor=#b85450;fontStyle=1" vertex="1" parent="1">
          <mxGeometry x="920" y="120" width="80" height="80" as="geometry" />
        </mxCell>
        <mxCell id="n6n7o-bAXKP4Zn80dGMA-27" value="" style="whiteSpace=wrap;html=1;aspect=fixed;fillColor=#f8cecc;strokeColor=#b85450;fontStyle=1" vertex="1" parent="1">
          <mxGeometry x="760" y="200" width="80" height="80" as="geometry" />
        </mxCell>
        <mxCell id="n6n7o-bAXKP4Zn80dGMA-28" value="" style="whiteSpace=wrap;html=1;aspect=fixed;fillColor=#f8cecc;strokeColor=#b85450;fontStyle=1" vertex="1" parent="1">
          <mxGeometry x="840" y="200" width="80" height="80" as="geometry" />
        </mxCell>
        <mxCell id="n6n7o-bAXKP4Zn80dGMA-29" value="" style="whiteSpace=wrap;html=1;aspect=fixed;fillColor=#f8cecc;strokeColor=#b85450;fontStyle=1" vertex="1" parent="1">
          <mxGeometry x="920" y="200" width="80" height="80" as="geometry" />
        </mxCell>
        <mxCell id="n6n7o-bAXKP4Zn80dGMA-30" value="" style="whiteSpace=wrap;html=1;aspect=fixed;fillColor=#f8cecc;strokeColor=#b85450;fontStyle=1" vertex="1" parent="1">
          <mxGeometry x="760" y="280" width="80" height="80" as="geometry" />
        </mxCell>
        <mxCell id="n6n7o-bAXKP4Zn80dGMA-31" value="" style="whiteSpace=wrap;html=1;aspect=fixed;fillColor=#f8cecc;strokeColor=#b85450;fontStyle=1" vertex="1" parent="1">
          <mxGeometry x="840" y="280" width="80" height="80" as="geometry" />
        </mxCell>
        <mxCell id="n6n7o-bAXKP4Zn80dGMA-32" value="" style="whiteSpace=wrap;html=1;aspect=fixed;fillColor=#f8cecc;strokeColor=#b85450;fontStyle=1" vertex="1" parent="1">
          <mxGeometry x="920" y="280" width="80" height="80" as="geometry" />
        </mxCell>
        <mxCell id="n6n7o-bAXKP4Zn80dGMA-33" value="" style="whiteSpace=wrap;html=1;aspect=fixed;fillColor=#dae8fc;strokeColor=#6c8ebf;fontStyle=1" vertex="1" parent="1">
          <mxGeometry x="80" y="400" width="320" height="320" as="geometry" />
        </mxCell>
        <mxCell id="n6n7o-bAXKP4Zn80dGMA-34" value="" style="whiteSpace=wrap;html=1;aspect=fixed;fillColor=#f8cecc;strokeColor=#b85450;fontStyle=1" vertex="1" parent="1">
          <mxGeometry x="120" y="440" width="80" height="80" as="geometry" />
        </mxCell>
        <mxCell id="n6n7o-bAXKP4Zn80dGMA-35" value="" style="whiteSpace=wrap;html=1;aspect=fixed;fillColor=#f8cecc;strokeColor=#b85450;fontStyle=1" vertex="1" parent="1">
          <mxGeometry x="200" y="440" width="80" height="80" as="geometry" />
        </mxCell>
        <mxCell id="n6n7o-bAXKP4Zn80dGMA-36" value="" style="whiteSpace=wrap;html=1;aspect=fixed;fillColor=#f8cecc;strokeColor=#b85450;fontStyle=1" vertex="1" parent="1">
          <mxGeometry x="280" y="440" width="80" height="80" as="geometry" />
        </mxCell>
        <mxCell id="n6n7o-bAXKP4Zn80dGMA-37" value="" style="whiteSpace=wrap;html=1;aspect=fixed;fillColor=#f8cecc;strokeColor=#b85450;fontStyle=1" vertex="1" parent="1">
          <mxGeometry x="120" y="520" width="80" height="80" as="geometry" />
        </mxCell>
        <mxCell id="n6n7o-bAXKP4Zn80dGMA-38" value="" style="whiteSpace=wrap;html=1;aspect=fixed;fillColor=#f8cecc;strokeColor=#b85450;fontStyle=1" vertex="1" parent="1">
          <mxGeometry x="200" y="520" width="80" height="80" as="geometry" />
        </mxCell>
        <mxCell id="n6n7o-bAXKP4Zn80dGMA-39" value="" style="whiteSpace=wrap;html=1;aspect=fixed;fillColor=#f8cecc;strokeColor=#b85450;fontStyle=1" vertex="1" parent="1">
          <mxGeometry x="280" y="520" width="80" height="80" as="geometry" />
        </mxCell>
        <mxCell id="n6n7o-bAXKP4Zn80dGMA-40" value="" style="whiteSpace=wrap;html=1;aspect=fixed;fillColor=#f8cecc;strokeColor=#b85450;fontStyle=1" vertex="1" parent="1">
          <mxGeometry x="120" y="600" width="80" height="80" as="geometry" />
        </mxCell>
        <mxCell id="n6n7o-bAXKP4Zn80dGMA-41" value="" style="whiteSpace=wrap;html=1;aspect=fixed;fillColor=#f8cecc;strokeColor=#b85450;fontStyle=1" vertex="1" parent="1">
          <mxGeometry x="200" y="600" width="80" height="80" as="geometry" />
        </mxCell>
        <mxCell id="n6n7o-bAXKP4Zn80dGMA-42" value="" style="whiteSpace=wrap;html=1;aspect=fixed;fillColor=#f8cecc;strokeColor=#b85450;fontStyle=1" vertex="1" parent="1">
          <mxGeometry x="280" y="600" width="80" height="80" as="geometry" />
        </mxCell>
        <mxCell id="n6n7o-bAXKP4Zn80dGMA-43" value="" style="whiteSpace=wrap;html=1;aspect=fixed;fillColor=#dae8fc;strokeColor=#6c8ebf;fontStyle=1" vertex="1" parent="1">
          <mxGeometry x="400" y="400" width="320" height="320" as="geometry" />
        </mxCell>
        <mxCell id="n6n7o-bAXKP4Zn80dGMA-44" value="" style="whiteSpace=wrap;html=1;aspect=fixed;fillColor=#f8cecc;strokeColor=#b85450;fontStyle=1" vertex="1" parent="1">
          <mxGeometry x="440" y="440" width="80" height="80" as="geometry" />
        </mxCell>
        <mxCell id="n6n7o-bAXKP4Zn80dGMA-45" value="" style="whiteSpace=wrap;html=1;aspect=fixed;fillColor=#f8cecc;strokeColor=#b85450;fontStyle=1" vertex="1" parent="1">
          <mxGeometry x="520" y="440" width="80" height="80" as="geometry" />
        </mxCell>
        <mxCell id="n6n7o-bAXKP4Zn80dGMA-46" value="" style="whiteSpace=wrap;html=1;aspect=fixed;fillColor=#f8cecc;strokeColor=#b85450;fontStyle=1" vertex="1" parent="1">
          <mxGeometry x="600" y="440" width="80" height="80" as="geometry" />
        </mxCell>
        <mxCell id="n6n7o-bAXKP4Zn80dGMA-47" value="" style="whiteSpace=wrap;html=1;aspect=fixed;fillColor=#f8cecc;strokeColor=#b85450;fontStyle=1" vertex="1" parent="1">
          <mxGeometry x="440" y="520" width="80" height="80" as="geometry" />
        </mxCell>
        <mxCell id="n6n7o-bAXKP4Zn80dGMA-48" value="" style="whiteSpace=wrap;html=1;aspect=fixed;fillColor=#f8cecc;strokeColor=#b85450;fontStyle=1" vertex="1" parent="1">
          <mxGeometry x="520" y="520" width="80" height="80" as="geometry" />
        </mxCell>
        <mxCell id="n6n7o-bAXKP4Zn80dGMA-49" value="" style="whiteSpace=wrap;html=1;aspect=fixed;fillColor=#f8cecc;strokeColor=#b85450;fontStyle=1" vertex="1" parent="1">
          <mxGeometry x="600" y="520" width="80" height="80" as="geometry" />
        </mxCell>
        <mxCell id="n6n7o-bAXKP4Zn80dGMA-50" value="" style="whiteSpace=wrap;html=1;aspect=fixed;fillColor=#f8cecc;strokeColor=#b85450;fontStyle=1" vertex="1" parent="1">
          <mxGeometry x="440" y="600" width="80" height="80" as="geometry" />
        </mxCell>
        <mxCell id="n6n7o-bAXKP4Zn80dGMA-51" value="" style="whiteSpace=wrap;html=1;aspect=fixed;fillColor=#f8cecc;strokeColor=#b85450;fontStyle=1" vertex="1" parent="1">
          <mxGeometry x="520" y="600" width="80" height="80" as="geometry" />
        </mxCell>
        <mxCell id="n6n7o-bAXKP4Zn80dGMA-52" value="" style="whiteSpace=wrap;html=1;aspect=fixed;fillColor=#f8cecc;strokeColor=#b85450;fontStyle=1" vertex="1" parent="1">
          <mxGeometry x="600" y="600" width="80" height="80" as="geometry" />
        </mxCell>
        <mxCell id="n6n7o-bAXKP4Zn80dGMA-53" value="" style="whiteSpace=wrap;html=1;aspect=fixed;fillColor=#dae8fc;strokeColor=#6c8ebf;fontStyle=1" vertex="1" parent="1">
          <mxGeometry x="720" y="400" width="320" height="320" as="geometry" />
        </mxCell>
        <mxCell id="n6n7o-bAXKP4Zn80dGMA-54" value="" style="whiteSpace=wrap;html=1;aspect=fixed;fillColor=#f8cecc;strokeColor=#b85450;fontStyle=1" vertex="1" parent="1">
          <mxGeometry x="760" y="440" width="80" height="80" as="geometry" />
        </mxCell>
        <mxCell id="n6n7o-bAXKP4Zn80dGMA-55" value="" style="whiteSpace=wrap;html=1;aspect=fixed;fillColor=#f8cecc;strokeColor=#b85450;fontStyle=1" vertex="1" parent="1">
          <mxGeometry x="840" y="440" width="80" height="80" as="geometry" />
        </mxCell>
        <mxCell id="n6n7o-bAXKP4Zn80dGMA-56" value="" style="whiteSpace=wrap;html=1;aspect=fixed;fillColor=#f8cecc;strokeColor=#b85450;fontStyle=1" vertex="1" parent="1">
          <mxGeometry x="920" y="440" width="80" height="80" as="geometry" />
        </mxCell>
        <mxCell id="n6n7o-bAXKP4Zn80dGMA-57" value="" style="whiteSpace=wrap;html=1;aspect=fixed;fillColor=#f8cecc;strokeColor=#b85450;fontStyle=1" vertex="1" parent="1">
          <mxGeometry x="760" y="520" width="80" height="80" as="geometry" />
        </mxCell>
        <mxCell id="n6n7o-bAXKP4Zn80dGMA-58" value="" style="whiteSpace=wrap;html=1;aspect=fixed;fillColor=#f8cecc;strokeColor=#b85450;fontStyle=1" vertex="1" parent="1">
          <mxGeometry x="840" y="520" width="80" height="80" as="geometry" />
        </mxCell>
        <mxCell id="n6n7o-bAXKP4Zn80dGMA-59" value="" style="whiteSpace=wrap;html=1;aspect=fixed;fillColor=#f8cecc;strokeColor=#b85450;fontStyle=1" vertex="1" parent="1">
          <mxGeometry x="920" y="520" width="80" height="80" as="geometry" />
        </mxCell>
        <mxCell id="n6n7o-bAXKP4Zn80dGMA-60" value="" style="whiteSpace=wrap;html=1;aspect=fixed;fillColor=#f8cecc;strokeColor=#b85450;fontStyle=1" vertex="1" parent="1">
          <mxGeometry x="760" y="600" width="80" height="80" as="geometry" />
        </mxCell>
        <mxCell id="n6n7o-bAXKP4Zn80dGMA-61" value="" style="whiteSpace=wrap;html=1;aspect=fixed;fillColor=#f8cecc;strokeColor=#b85450;fontStyle=1" vertex="1" parent="1">
          <mxGeometry x="840" y="600" width="80" height="80" as="geometry" />
        </mxCell>
        <mxCell id="n6n7o-bAXKP4Zn80dGMA-62" value="" style="whiteSpace=wrap;html=1;aspect=fixed;fillColor=#f8cecc;strokeColor=#b85450;fontStyle=1" vertex="1" parent="1">
          <mxGeometry x="920" y="600" width="80" height="80" as="geometry" />
        </mxCell>
        <mxCell id="n6n7o-bAXKP4Zn80dGMA-64" value="0" style="whiteSpace=wrap;html=1;aspect=fixed;fillColor=#b1ddf0;strokeColor=#10739e;fontStyle=1" vertex="1" parent="1">
          <mxGeometry x="370" y="370" width="30" height="30" as="geometry" />
        </mxCell>
        <mxCell id="n6n7o-bAXKP4Zn80dGMA-65" value="1" style="whiteSpace=wrap;html=1;aspect=fixed;fillColor=#b1ddf0;strokeColor=#10739e;fontStyle=1" vertex="1" parent="1">
          <mxGeometry x="690" y="370" width="30" height="30" as="geometry" />
        </mxCell>
        <mxCell id="n6n7o-bAXKP4Zn80dGMA-66" value="2" style="whiteSpace=wrap;html=1;aspect=fixed;fillColor=#b1ddf0;strokeColor=#10739e;fontStyle=1" vertex="1" parent="1">
          <mxGeometry x="1010" y="370" width="30" height="30" as="geometry" />
        </mxCell>
        <mxCell id="n6n7o-bAXKP4Zn80dGMA-67" value="3" style="whiteSpace=wrap;html=1;aspect=fixed;fillColor=#b1ddf0;strokeColor=#10739e;fontStyle=1" vertex="1" parent="1">
          <mxGeometry x="370" y="690" width="30" height="30" as="geometry" />
        </mxCell>
        <mxCell id="n6n7o-bAXKP4Zn80dGMA-68" value="4" style="whiteSpace=wrap;html=1;aspect=fixed;fillColor=#b1ddf0;strokeColor=#10739e;fontStyle=1" vertex="1" parent="1">
          <mxGeometry x="690" y="690" width="30" height="30" as="geometry" />
        </mxCell>
        <mxCell id="n6n7o-bAXKP4Zn80dGMA-69" value="5" style="whiteSpace=wrap;html=1;aspect=fixed;fillColor=#b1ddf0;strokeColor=#10739e;fontStyle=1" vertex="1" parent="1">
          <mxGeometry x="1010" y="690" width="30" height="30" as="geometry" />
        </mxCell>
        <mxCell id="n6n7o-bAXKP4Zn80dGMA-70" value="0" style="whiteSpace=wrap;html=1;aspect=fixed;fillColor=#a20025;strokeColor=#6F0000;fontColor=#ffffff;fontStyle=1" vertex="1" parent="1">
          <mxGeometry x="170" y="170" width="30" height="30" as="geometry" />
        </mxCell>
        <mxCell id="n6n7o-bAXKP4Zn80dGMA-71" value="1" style="whiteSpace=wrap;html=1;aspect=fixed;fillColor=#a20025;strokeColor=#6F0000;fontColor=#ffffff;fontStyle=1" vertex="1" parent="1">
          <mxGeometry x="250" y="170" width="30" height="30" as="geometry" />
        </mxCell>
        <mxCell id="n6n7o-bAXKP4Zn80dGMA-72" value="2" style="whiteSpace=wrap;html=1;aspect=fixed;fillColor=#a20025;strokeColor=#6F0000;fontColor=#ffffff;fontStyle=1" vertex="1" parent="1">
          <mxGeometry x="330" y="170" width="30" height="30" as="geometry" />
        </mxCell>
        <mxCell id="n6n7o-bAXKP4Zn80dGMA-73" value="3" style="whiteSpace=wrap;html=1;aspect=fixed;fillColor=#a20025;strokeColor=#6F0000;fontColor=#ffffff;fontStyle=1" vertex="1" parent="1">
          <mxGeometry x="170" y="250" width="30" height="30" as="geometry" />
        </mxCell>
        <mxCell id="n6n7o-bAXKP4Zn80dGMA-74" value="4" style="whiteSpace=wrap;html=1;aspect=fixed;fillColor=#a20025;strokeColor=#6F0000;fontColor=#ffffff;fontStyle=1" vertex="1" parent="1">
          <mxGeometry x="250" y="250" width="30" height="30" as="geometry" />
        </mxCell>
        <mxCell id="n6n7o-bAXKP4Zn80dGMA-75" value="5" style="whiteSpace=wrap;html=1;aspect=fixed;fillColor=#a20025;strokeColor=#6F0000;fontColor=#ffffff;fontStyle=1" vertex="1" parent="1">
          <mxGeometry x="330" y="250" width="30" height="30" as="geometry" />
        </mxCell>
        <mxCell id="n6n7o-bAXKP4Zn80dGMA-76" value="6" style="whiteSpace=wrap;html=1;aspect=fixed;fillColor=#a20025;strokeColor=#6F0000;fontColor=#ffffff;fontStyle=1" vertex="1" parent="1">
          <mxGeometry x="170" y="330" width="30" height="30" as="geometry" />
        </mxCell>
        <mxCell id="n6n7o-bAXKP4Zn80dGMA-77" value="7" style="whiteSpace=wrap;html=1;aspect=fixed;fillColor=#a20025;strokeColor=#6F0000;fontColor=#ffffff;fontStyle=1" vertex="1" parent="1">
          <mxGeometry x="250" y="330" width="30" height="30" as="geometry" />
        </mxCell>
        <mxCell id="n6n7o-bAXKP4Zn80dGMA-78" value="8" style="whiteSpace=wrap;html=1;aspect=fixed;fillColor=#a20025;strokeColor=#6F0000;fontColor=#ffffff;fontStyle=1" vertex="1" parent="1">
          <mxGeometry x="330" y="330" width="30" height="30" as="geometry" />
        </mxCell>
        <mxCell id="n6n7o-bAXKP4Zn80dGMA-79" value="9" style="whiteSpace=wrap;html=1;aspect=fixed;fillColor=#a20025;strokeColor=#6F0000;fontColor=#ffffff;fontStyle=1" vertex="1" parent="1">
          <mxGeometry x="490" y="170" width="30" height="30" as="geometry" />
        </mxCell>
        <mxCell id="n6n7o-bAXKP4Zn80dGMA-80" value="10" style="whiteSpace=wrap;html=1;aspect=fixed;fillColor=#a20025;strokeColor=#6F0000;fontColor=#ffffff;fontStyle=1" vertex="1" parent="1">
          <mxGeometry x="570" y="170" width="30" height="30" as="geometry" />
        </mxCell>
        <mxCell id="n6n7o-bAXKP4Zn80dGMA-81" value="11" style="whiteSpace=wrap;html=1;aspect=fixed;fillColor=#a20025;strokeColor=#6F0000;fontColor=#ffffff;fontStyle=1" vertex="1" parent="1">
          <mxGeometry x="650" y="170" width="30" height="30" as="geometry" />
        </mxCell>
        <mxCell id="n6n7o-bAXKP4Zn80dGMA-82" value="12" style="whiteSpace=wrap;html=1;aspect=fixed;fillColor=#a20025;strokeColor=#6F0000;fontColor=#ffffff;fontStyle=1" vertex="1" parent="1">
          <mxGeometry x="490" y="250" width="30" height="30" as="geometry" />
        </mxCell>
        <mxCell id="n6n7o-bAXKP4Zn80dGMA-83" value="13" style="whiteSpace=wrap;html=1;aspect=fixed;fillColor=#a20025;strokeColor=#6F0000;fontColor=#ffffff;fontStyle=1" vertex="1" parent="1">
          <mxGeometry x="570" y="250" width="30" height="30" as="geometry" />
        </mxCell>
        <mxCell id="n6n7o-bAXKP4Zn80dGMA-84" value="14" style="whiteSpace=wrap;html=1;aspect=fixed;fillColor=#a20025;strokeColor=#6F0000;fontColor=#ffffff;fontStyle=1" vertex="1" parent="1">
          <mxGeometry x="650" y="250" width="30" height="30" as="geometry" />
        </mxCell>
        <mxCell id="n6n7o-bAXKP4Zn80dGMA-85" value="15" style="whiteSpace=wrap;html=1;aspect=fixed;fillColor=#a20025;strokeColor=#6F0000;fontColor=#ffffff;fontStyle=1" vertex="1" parent="1">
          <mxGeometry x="490" y="330" width="30" height="30" as="geometry" />
        </mxCell>
        <mxCell id="n6n7o-bAXKP4Zn80dGMA-86" value="16" style="whiteSpace=wrap;html=1;aspect=fixed;fillColor=#a20025;strokeColor=#6F0000;fontColor=#ffffff;fontStyle=1" vertex="1" parent="1">
          <mxGeometry x="570" y="330" width="30" height="30" as="geometry" />
        </mxCell>
        <mxCell id="n6n7o-bAXKP4Zn80dGMA-87" value="17" style="whiteSpace=wrap;html=1;aspect=fixed;fillColor=#a20025;strokeColor=#6F0000;fontColor=#ffffff;fontStyle=1" vertex="1" parent="1">
          <mxGeometry x="650" y="330" width="30" height="30" as="geometry" />
        </mxCell>
        <mxCell id="n6n7o-bAXKP4Zn80dGMA-88" value="18" style="whiteSpace=wrap;html=1;aspect=fixed;fillColor=#a20025;strokeColor=#6F0000;fontColor=#ffffff;fontStyle=1" vertex="1" parent="1">
          <mxGeometry x="810" y="170" width="30" height="30" as="geometry" />
        </mxCell>
        <mxCell id="n6n7o-bAXKP4Zn80dGMA-89" value="19" style="whiteSpace=wrap;html=1;aspect=fixed;fillColor=#a20025;strokeColor=#6F0000;fontColor=#ffffff;fontStyle=1" vertex="1" parent="1">
          <mxGeometry x="890" y="170" width="30" height="30" as="geometry" />
        </mxCell>
        <mxCell id="n6n7o-bAXKP4Zn80dGMA-90" value="20" style="whiteSpace=wrap;html=1;aspect=fixed;fillColor=#a20025;strokeColor=#6F0000;fontColor=#ffffff;fontStyle=1" vertex="1" parent="1">
          <mxGeometry x="970" y="170" width="30" height="30" as="geometry" />
        </mxCell>
        <mxCell id="n6n7o-bAXKP4Zn80dGMA-91" value="21" style="whiteSpace=wrap;html=1;aspect=fixed;fillColor=#a20025;strokeColor=#6F0000;fontColor=#ffffff;fontStyle=1" vertex="1" parent="1">
          <mxGeometry x="810" y="250" width="30" height="30" as="geometry" />
        </mxCell>
        <mxCell id="n6n7o-bAXKP4Zn80dGMA-92" value="22" style="whiteSpace=wrap;html=1;aspect=fixed;fillColor=#a20025;strokeColor=#6F0000;fontColor=#ffffff;fontStyle=1" vertex="1" parent="1">
          <mxGeometry x="890" y="250" width="30" height="30" as="geometry" />
        </mxCell>
        <mxCell id="n6n7o-bAXKP4Zn80dGMA-93" value="23" style="whiteSpace=wrap;html=1;aspect=fixed;fillColor=#a20025;strokeColor=#6F0000;fontColor=#ffffff;fontStyle=1" vertex="1" parent="1">
          <mxGeometry x="970" y="250" width="30" height="30" as="geometry" />
        </mxCell>
        <mxCell id="n6n7o-bAXKP4Zn80dGMA-94" value="24" style="whiteSpace=wrap;html=1;aspect=fixed;fillColor=#a20025;strokeColor=#6F0000;fontColor=#ffffff;fontStyle=1" vertex="1" parent="1">
          <mxGeometry x="810" y="330" width="30" height="30" as="geometry" />
        </mxCell>
        <mxCell id="n6n7o-bAXKP4Zn80dGMA-95" value="25" style="whiteSpace=wrap;html=1;aspect=fixed;fillColor=#a20025;strokeColor=#6F0000;fontColor=#ffffff;fontStyle=1" vertex="1" parent="1">
          <mxGeometry x="890" y="330" width="30" height="30" as="geometry" />
        </mxCell>
        <mxCell id="n6n7o-bAXKP4Zn80dGMA-96" value="26" style="whiteSpace=wrap;html=1;aspect=fixed;fillColor=#a20025;strokeColor=#6F0000;fontColor=#ffffff;fontStyle=1" vertex="1" parent="1">
          <mxGeometry x="970" y="330" width="30" height="30" as="geometry" />
        </mxCell>
        <mxCell id="n6n7o-bAXKP4Zn80dGMA-97" value="27" style="whiteSpace=wrap;html=1;aspect=fixed;fillColor=#a20025;strokeColor=#6F0000;fontColor=#ffffff;fontStyle=1" vertex="1" parent="1">
          <mxGeometry x="170" y="490" width="30" height="30" as="geometry" />
        </mxCell>
        <mxCell id="n6n7o-bAXKP4Zn80dGMA-98" value="28" style="whiteSpace=wrap;html=1;aspect=fixed;fillColor=#a20025;strokeColor=#6F0000;fontColor=#ffffff;fontStyle=1" vertex="1" parent="1">
          <mxGeometry x="250" y="490" width="30" height="30" as="geometry" />
        </mxCell>
        <mxCell id="n6n7o-bAXKP4Zn80dGMA-99" value="29" style="whiteSpace=wrap;html=1;aspect=fixed;fillColor=#a20025;strokeColor=#6F0000;fontColor=#ffffff;fontStyle=1" vertex="1" parent="1">
          <mxGeometry x="330" y="490" width="30" height="30" as="geometry" />
        </mxCell>
        <mxCell id="n6n7o-bAXKP4Zn80dGMA-100" value="30" style="whiteSpace=wrap;html=1;aspect=fixed;fillColor=#a20025;strokeColor=#6F0000;fontColor=#ffffff;fontStyle=1" vertex="1" parent="1">
          <mxGeometry x="170" y="570" width="30" height="30" as="geometry" />
        </mxCell>
        <mxCell id="n6n7o-bAXKP4Zn80dGMA-101" value="31" style="whiteSpace=wrap;html=1;aspect=fixed;fillColor=#a20025;strokeColor=#6F0000;fontColor=#ffffff;fontStyle=1" vertex="1" parent="1">
          <mxGeometry x="250" y="570" width="30" height="30" as="geometry" />
        </mxCell>
        <mxCell id="n6n7o-bAXKP4Zn80dGMA-102" value="32" style="whiteSpace=wrap;html=1;aspect=fixed;fillColor=#a20025;strokeColor=#6F0000;fontColor=#ffffff;fontStyle=1" vertex="1" parent="1">
          <mxGeometry x="330" y="570" width="30" height="30" as="geometry" />
        </mxCell>
        <mxCell id="n6n7o-bAXKP4Zn80dGMA-103" value="33" style="whiteSpace=wrap;html=1;aspect=fixed;fillColor=#a20025;strokeColor=#6F0000;fontColor=#ffffff;fontStyle=1" vertex="1" parent="1">
          <mxGeometry x="170" y="650" width="30" height="30" as="geometry" />
        </mxCell>
        <mxCell id="n6n7o-bAXKP4Zn80dGMA-104" value="34" style="whiteSpace=wrap;html=1;aspect=fixed;fillColor=#a20025;strokeColor=#6F0000;fontColor=#ffffff;fontStyle=1" vertex="1" parent="1">
          <mxGeometry x="250" y="650" width="30" height="30" as="geometry" />
        </mxCell>
        <mxCell id="n6n7o-bAXKP4Zn80dGMA-105" value="35" style="whiteSpace=wrap;html=1;aspect=fixed;fillColor=#a20025;strokeColor=#6F0000;fontColor=#ffffff;fontStyle=1" vertex="1" parent="1">
          <mxGeometry x="330" y="650" width="30" height="30" as="geometry" />
        </mxCell>
        <mxCell id="n6n7o-bAXKP4Zn80dGMA-106" value="36" style="whiteSpace=wrap;html=1;aspect=fixed;fillColor=#a20025;strokeColor=#6F0000;fontColor=#ffffff;fontStyle=1" vertex="1" parent="1">
          <mxGeometry x="490" y="490" width="30" height="30" as="geometry" />
        </mxCell>
        <mxCell id="n6n7o-bAXKP4Zn80dGMA-107" value="37" style="whiteSpace=wrap;html=1;aspect=fixed;fillColor=#a20025;strokeColor=#6F0000;fontColor=#ffffff;fontStyle=1" vertex="1" parent="1">
          <mxGeometry x="570" y="490" width="30" height="30" as="geometry" />
        </mxCell>
        <mxCell id="n6n7o-bAXKP4Zn80dGMA-108" value="38" style="whiteSpace=wrap;html=1;aspect=fixed;fillColor=#a20025;strokeColor=#6F0000;fontColor=#ffffff;fontStyle=1" vertex="1" parent="1">
          <mxGeometry x="650" y="490" width="30" height="30" as="geometry" />
        </mxCell>
        <mxCell id="n6n7o-bAXKP4Zn80dGMA-109" value="39" style="whiteSpace=wrap;html=1;aspect=fixed;fillColor=#a20025;strokeColor=#6F0000;fontColor=#ffffff;fontStyle=1" vertex="1" parent="1">
          <mxGeometry x="490" y="570" width="30" height="30" as="geometry" />
        </mxCell>
        <mxCell id="n6n7o-bAXKP4Zn80dGMA-110" value="40" style="whiteSpace=wrap;html=1;aspect=fixed;fillColor=#a20025;strokeColor=#6F0000;fontColor=#ffffff;fontStyle=1" vertex="1" parent="1">
          <mxGeometry x="570" y="570" width="30" height="30" as="geometry" />
        </mxCell>
        <mxCell id="n6n7o-bAXKP4Zn80dGMA-111" value="42" style="whiteSpace=wrap;html=1;aspect=fixed;fillColor=#a20025;strokeColor=#6F0000;fontColor=#ffffff;fontStyle=1" vertex="1" parent="1">
          <mxGeometry x="650" y="570" width="30" height="30" as="geometry" />
        </mxCell>
        <mxCell id="n6n7o-bAXKP4Zn80dGMA-112" value="42" style="whiteSpace=wrap;html=1;aspect=fixed;fillColor=#a20025;strokeColor=#6F0000;fontColor=#ffffff;fontStyle=1" vertex="1" parent="1">
          <mxGeometry x="490" y="650" width="30" height="30" as="geometry" />
        </mxCell>
        <mxCell id="n6n7o-bAXKP4Zn80dGMA-113" value="43" style="whiteSpace=wrap;html=1;aspect=fixed;fillColor=#a20025;strokeColor=#6F0000;fontColor=#ffffff;fontStyle=1" vertex="1" parent="1">
          <mxGeometry x="570" y="650" width="30" height="30" as="geometry" />
        </mxCell>
        <mxCell id="n6n7o-bAXKP4Zn80dGMA-114" value="44" style="whiteSpace=wrap;html=1;aspect=fixed;fillColor=#a20025;strokeColor=#6F0000;fontColor=#ffffff;fontStyle=1" vertex="1" parent="1">
          <mxGeometry x="650" y="650" width="30" height="30" as="geometry" />
        </mxCell>
        <mxCell id="n6n7o-bAXKP4Zn80dGMA-115" value="45" style="whiteSpace=wrap;html=1;aspect=fixed;fillColor=#a20025;strokeColor=#6F0000;fontColor=#ffffff;fontStyle=1" vertex="1" parent="1">
          <mxGeometry x="810" y="490" width="30" height="30" as="geometry" />
        </mxCell>
        <mxCell id="n6n7o-bAXKP4Zn80dGMA-116" value="46" style="whiteSpace=wrap;html=1;aspect=fixed;fillColor=#a20025;strokeColor=#6F0000;fontColor=#ffffff;fontStyle=1" vertex="1" parent="1">
          <mxGeometry x="890" y="490" width="30" height="30" as="geometry" />
        </mxCell>
        <mxCell id="n6n7o-bAXKP4Zn80dGMA-117" value="47" style="whiteSpace=wrap;html=1;aspect=fixed;fillColor=#a20025;strokeColor=#6F0000;fontColor=#ffffff;fontStyle=1" vertex="1" parent="1">
          <mxGeometry x="970" y="490" width="30" height="30" as="geometry" />
        </mxCell>
        <mxCell id="n6n7o-bAXKP4Zn80dGMA-118" value="48" style="whiteSpace=wrap;html=1;aspect=fixed;fillColor=#a20025;strokeColor=#6F0000;fontColor=#ffffff;fontStyle=1" vertex="1" parent="1">
          <mxGeometry x="810" y="570" width="30" height="30" as="geometry" />
        </mxCell>
        <mxCell id="n6n7o-bAXKP4Zn80dGMA-119" value="49" style="whiteSpace=wrap;html=1;aspect=fixed;fillColor=#a20025;strokeColor=#6F0000;fontColor=#ffffff;fontStyle=1" vertex="1" parent="1">
          <mxGeometry x="890" y="570" width="30" height="30" as="geometry" />
        </mxCell>
        <mxCell id="n6n7o-bAXKP4Zn80dGMA-120" value="50" style="whiteSpace=wrap;html=1;aspect=fixed;fillColor=#a20025;strokeColor=#6F0000;fontColor=#ffffff;fontStyle=1" vertex="1" parent="1">
          <mxGeometry x="970" y="570" width="30" height="30" as="geometry" />
        </mxCell>
        <mxCell id="n6n7o-bAXKP4Zn80dGMA-121" value="51" style="whiteSpace=wrap;html=1;aspect=fixed;fillColor=#a20025;strokeColor=#6F0000;fontColor=#ffffff;fontStyle=1" vertex="1" parent="1">
          <mxGeometry x="810" y="650" width="30" height="30" as="geometry" />
        </mxCell>
        <mxCell id="n6n7o-bAXKP4Zn80dGMA-122" value="52" style="whiteSpace=wrap;html=1;aspect=fixed;fillColor=#a20025;strokeColor=#6F0000;fontColor=#ffffff;fontStyle=1" vertex="1" parent="1">
          <mxGeometry x="890" y="650" width="30" height="30" as="geometry" />
        </mxCell>
        <mxCell id="n6n7o-bAXKP4Zn80dGMA-123" value="53" style="whiteSpace=wrap;html=1;aspect=fixed;fillColor=#a20025;strokeColor=#6F0000;fontColor=#ffffff;fontStyle=1" vertex="1" parent="1">
          <mxGeometry x="970" y="650" width="30" height="30" as="geometry" />
        </mxCell>
        <mxCell id="n6n7o-bAXKP4Zn80dGMA-124" value="(0, 0)" style="text;html=1;align=center;verticalAlign=middle;whiteSpace=wrap;rounded=0;fontStyle=1" vertex="1" parent="1">
          <mxGeometry x="210" y="80" width="60" height="30" as="geometry" />
        </mxCell>
        <mxCell id="n6n7o-bAXKP4Zn80dGMA-125" value="(0, 1)" style="text;html=1;align=center;verticalAlign=middle;whiteSpace=wrap;rounded=0;fontStyle=1" vertex="1" parent="1">
          <mxGeometry x="540" y="80" width="60" height="30" as="geometry" />
        </mxCell>
        <mxCell id="n6n7o-bAXKP4Zn80dGMA-126" value="(0, 2)" style="text;html=1;align=center;verticalAlign=middle;whiteSpace=wrap;rounded=0;fontStyle=1" vertex="1" parent="1">
          <mxGeometry x="860" y="80" width="60" height="30" as="geometry" />
        </mxCell>
        <mxCell id="n6n7o-bAXKP4Zn80dGMA-127" value="(1, 0)" style="text;html=1;align=center;verticalAlign=middle;whiteSpace=wrap;rounded=0;fontStyle=1" vertex="1" parent="1">
          <mxGeometry x="220" y="400" width="60" height="30" as="geometry" />
        </mxCell>
        <mxCell id="n6n7o-bAXKP4Zn80dGMA-128" value="(1, 1)" style="text;html=1;align=center;verticalAlign=middle;whiteSpace=wrap;rounded=0;fontStyle=1" vertex="1" parent="1">
          <mxGeometry x="530" y="400" width="60" height="30" as="geometry" />
        </mxCell>
        <mxCell id="n6n7o-bAXKP4Zn80dGMA-129" value="(1, 2)" style="text;html=1;align=center;verticalAlign=middle;whiteSpace=wrap;rounded=0;fontStyle=1" vertex="1" parent="1">
          <mxGeometry x="850" y="400" width="60" height="30" as="geometry" />
        </mxCell>
        <mxCell id="n6n7o-bAXKP4Zn80dGMA-130" value="(0, 0)" style="text;html=1;align=center;verticalAlign=middle;whiteSpace=wrap;rounded=0;fontStyle=1" vertex="1" parent="1">
          <mxGeometry x="130" y="140" width="60" height="30" as="geometry" />
        </mxCell>
        <mxCell id="n6n7o-bAXKP4Zn80dGMA-131" value="(0, 1)" style="text;html=1;align=center;verticalAlign=middle;whiteSpace=wrap;rounded=0;fontStyle=1" vertex="1" parent="1">
          <mxGeometry x="210" y="140" width="60" height="30" as="geometry" />
        </mxCell>
        <mxCell id="n6n7o-bAXKP4Zn80dGMA-132" value="(0, 2)" style="text;html=1;align=center;verticalAlign=middle;whiteSpace=wrap;rounded=0;fontStyle=1" vertex="1" parent="1">
          <mxGeometry x="300" y="140" width="60" height="30" as="geometry" />
        </mxCell>
        <mxCell id="n6n7o-bAXKP4Zn80dGMA-133" value="(1, 0)" style="text;html=1;align=center;verticalAlign=middle;whiteSpace=wrap;rounded=0;fontStyle=1" vertex="1" parent="1">
          <mxGeometry x="140" y="220" width="60" height="30" as="geometry" />
        </mxCell>
        <mxCell id="n6n7o-bAXKP4Zn80dGMA-134" value="(1, 1)" style="text;html=1;align=center;verticalAlign=middle;whiteSpace=wrap;rounded=0;fontStyle=1" vertex="1" parent="1">
          <mxGeometry x="210" y="220" width="60" height="30" as="geometry" />
        </mxCell>
        <mxCell id="n6n7o-bAXKP4Zn80dGMA-135" value="(1, 2)" style="text;html=1;align=center;verticalAlign=middle;whiteSpace=wrap;rounded=0;fontStyle=1" vertex="1" parent="1">
          <mxGeometry x="290" y="220" width="60" height="30" as="geometry" />
        </mxCell>
        <mxCell id="n6n7o-bAXKP4Zn80dGMA-136" value="(2, 0)" style="text;html=1;align=center;verticalAlign=middle;whiteSpace=wrap;rounded=0;fontStyle=1" vertex="1" parent="1">
          <mxGeometry x="140" y="290" width="60" height="30" as="geometry" />
        </mxCell>
        <mxCell id="n6n7o-bAXKP4Zn80dGMA-137" value="(2, 1)" style="text;html=1;align=center;verticalAlign=middle;whiteSpace=wrap;rounded=0;fontStyle=1" vertex="1" parent="1">
          <mxGeometry x="210" y="290" width="60" height="30" as="geometry" />
        </mxCell>
        <mxCell id="n6n7o-bAXKP4Zn80dGMA-138" value="(2, 2)" style="text;html=1;align=center;verticalAlign=middle;whiteSpace=wrap;rounded=0;fontStyle=1" vertex="1" parent="1">
          <mxGeometry x="290" y="290" width="60" height="30" as="geometry" />
        </mxCell>
        <mxCell id="n6n7o-bAXKP4Zn80dGMA-139" value="(0, 0)" style="text;html=1;align=center;verticalAlign=middle;whiteSpace=wrap;rounded=0;fontStyle=1" vertex="1" parent="1">
          <mxGeometry x="450" y="140" width="60" height="30" as="geometry" />
        </mxCell>
        <mxCell id="n6n7o-bAXKP4Zn80dGMA-140" value="(0, 1)" style="text;html=1;align=center;verticalAlign=middle;whiteSpace=wrap;rounded=0;fontStyle=1" vertex="1" parent="1">
          <mxGeometry x="530" y="140" width="60" height="30" as="geometry" />
        </mxCell>
        <mxCell id="n6n7o-bAXKP4Zn80dGMA-141" value="(0, 2)" style="text;html=1;align=center;verticalAlign=middle;whiteSpace=wrap;rounded=0;fontStyle=1" vertex="1" parent="1">
          <mxGeometry x="620" y="140" width="60" height="30" as="geometry" />
        </mxCell>
        <mxCell id="n6n7o-bAXKP4Zn80dGMA-142" value="(1, 0)" style="text;html=1;align=center;verticalAlign=middle;whiteSpace=wrap;rounded=0;fontStyle=1" vertex="1" parent="1">
          <mxGeometry x="460" y="220" width="60" height="30" as="geometry" />
        </mxCell>
        <mxCell id="n6n7o-bAXKP4Zn80dGMA-143" value="(1, 1)" style="text;html=1;align=center;verticalAlign=middle;whiteSpace=wrap;rounded=0;fontStyle=1" vertex="1" parent="1">
          <mxGeometry x="530" y="220" width="60" height="30" as="geometry" />
        </mxCell>
        <mxCell id="n6n7o-bAXKP4Zn80dGMA-144" value="(1, 2)" style="text;html=1;align=center;verticalAlign=middle;whiteSpace=wrap;rounded=0;fontStyle=1" vertex="1" parent="1">
          <mxGeometry x="610" y="220" width="60" height="30" as="geometry" />
        </mxCell>
        <mxCell id="n6n7o-bAXKP4Zn80dGMA-145" value="(2, 0)" style="text;html=1;align=center;verticalAlign=middle;whiteSpace=wrap;rounded=0;fontStyle=1" vertex="1" parent="1">
          <mxGeometry x="460" y="290" width="60" height="30" as="geometry" />
        </mxCell>
        <mxCell id="n6n7o-bAXKP4Zn80dGMA-146" value="(2, 1)" style="text;html=1;align=center;verticalAlign=middle;whiteSpace=wrap;rounded=0;fontStyle=1" vertex="1" parent="1">
          <mxGeometry x="530" y="290" width="60" height="30" as="geometry" />
        </mxCell>
        <mxCell id="n6n7o-bAXKP4Zn80dGMA-147" value="(2, 2)" style="text;html=1;align=center;verticalAlign=middle;whiteSpace=wrap;rounded=0;fontStyle=1" vertex="1" parent="1">
          <mxGeometry x="610" y="290" width="60" height="30" as="geometry" />
        </mxCell>
        <mxCell id="n6n7o-bAXKP4Zn80dGMA-148" value="(0, 0)" style="text;html=1;align=center;verticalAlign=middle;whiteSpace=wrap;rounded=0;fontStyle=1" vertex="1" parent="1">
          <mxGeometry x="765" y="140" width="60" height="30" as="geometry" />
        </mxCell>
        <mxCell id="n6n7o-bAXKP4Zn80dGMA-149" value="(0, 1)" style="text;html=1;align=center;verticalAlign=middle;whiteSpace=wrap;rounded=0;fontStyle=1" vertex="1" parent="1">
          <mxGeometry x="845" y="140" width="60" height="30" as="geometry" />
        </mxCell>
        <mxCell id="n6n7o-bAXKP4Zn80dGMA-150" value="(0, 2)" style="text;html=1;align=center;verticalAlign=middle;whiteSpace=wrap;rounded=0;fontStyle=1" vertex="1" parent="1">
          <mxGeometry x="935" y="140" width="60" height="30" as="geometry" />
        </mxCell>
        <mxCell id="n6n7o-bAXKP4Zn80dGMA-151" value="(1, 0)" style="text;html=1;align=center;verticalAlign=middle;whiteSpace=wrap;rounded=0;fontStyle=1" vertex="1" parent="1">
          <mxGeometry x="775" y="220" width="60" height="30" as="geometry" />
        </mxCell>
        <mxCell id="n6n7o-bAXKP4Zn80dGMA-152" value="(1, 1)" style="text;html=1;align=center;verticalAlign=middle;whiteSpace=wrap;rounded=0;fontStyle=1" vertex="1" parent="1">
          <mxGeometry x="845" y="220" width="60" height="30" as="geometry" />
        </mxCell>
        <mxCell id="n6n7o-bAXKP4Zn80dGMA-153" value="(1, 2)" style="text;html=1;align=center;verticalAlign=middle;whiteSpace=wrap;rounded=0;fontStyle=1" vertex="1" parent="1">
          <mxGeometry x="925" y="220" width="60" height="30" as="geometry" />
        </mxCell>
        <mxCell id="n6n7o-bAXKP4Zn80dGMA-154" value="(2, 0)" style="text;html=1;align=center;verticalAlign=middle;whiteSpace=wrap;rounded=0;fontStyle=1" vertex="1" parent="1">
          <mxGeometry x="775" y="290" width="60" height="30" as="geometry" />
        </mxCell>
        <mxCell id="n6n7o-bAXKP4Zn80dGMA-155" value="(2, 1)" style="text;html=1;align=center;verticalAlign=middle;whiteSpace=wrap;rounded=0;fontStyle=1" vertex="1" parent="1">
          <mxGeometry x="845" y="290" width="60" height="30" as="geometry" />
        </mxCell>
        <mxCell id="n6n7o-bAXKP4Zn80dGMA-156" value="(2, 2)" style="text;html=1;align=center;verticalAlign=middle;whiteSpace=wrap;rounded=0;fontStyle=1" vertex="1" parent="1">
          <mxGeometry x="925" y="290" width="60" height="30" as="geometry" />
        </mxCell>
        <mxCell id="n6n7o-bAXKP4Zn80dGMA-157" value="(0, 0)" style="text;html=1;align=center;verticalAlign=middle;whiteSpace=wrap;rounded=0;fontStyle=1" vertex="1" parent="1">
          <mxGeometry x="125" y="460" width="60" height="30" as="geometry" />
        </mxCell>
        <mxCell id="n6n7o-bAXKP4Zn80dGMA-158" value="(0, 1)" style="text;html=1;align=center;verticalAlign=middle;whiteSpace=wrap;rounded=0;fontStyle=1" vertex="1" parent="1">
          <mxGeometry x="205" y="460" width="60" height="30" as="geometry" />
        </mxCell>
        <mxCell id="n6n7o-bAXKP4Zn80dGMA-159" value="(0, 2)" style="text;html=1;align=center;verticalAlign=middle;whiteSpace=wrap;rounded=0;fontStyle=1" vertex="1" parent="1">
          <mxGeometry x="295" y="460" width="60" height="30" as="geometry" />
        </mxCell>
        <mxCell id="n6n7o-bAXKP4Zn80dGMA-160" value="(1, 0)" style="text;html=1;align=center;verticalAlign=middle;whiteSpace=wrap;rounded=0;fontStyle=1" vertex="1" parent="1">
          <mxGeometry x="135" y="540" width="60" height="30" as="geometry" />
        </mxCell>
        <mxCell id="n6n7o-bAXKP4Zn80dGMA-161" value="(1, 1)" style="text;html=1;align=center;verticalAlign=middle;whiteSpace=wrap;rounded=0;fontStyle=1" vertex="1" parent="1">
          <mxGeometry x="205" y="540" width="60" height="30" as="geometry" />
        </mxCell>
        <mxCell id="n6n7o-bAXKP4Zn80dGMA-162" value="(1, 2)" style="text;html=1;align=center;verticalAlign=middle;whiteSpace=wrap;rounded=0;fontStyle=1" vertex="1" parent="1">
          <mxGeometry x="285" y="540" width="60" height="30" as="geometry" />
        </mxCell>
        <mxCell id="n6n7o-bAXKP4Zn80dGMA-163" value="(2, 0)" style="text;html=1;align=center;verticalAlign=middle;whiteSpace=wrap;rounded=0;fontStyle=1" vertex="1" parent="1">
          <mxGeometry x="135" y="610" width="60" height="30" as="geometry" />
        </mxCell>
        <mxCell id="n6n7o-bAXKP4Zn80dGMA-164" value="(2, 1)" style="text;html=1;align=center;verticalAlign=middle;whiteSpace=wrap;rounded=0;fontStyle=1" vertex="1" parent="1">
          <mxGeometry x="205" y="610" width="60" height="30" as="geometry" />
        </mxCell>
        <mxCell id="n6n7o-bAXKP4Zn80dGMA-165" value="(2, 2)" style="text;html=1;align=center;verticalAlign=middle;whiteSpace=wrap;rounded=0;fontStyle=1" vertex="1" parent="1">
          <mxGeometry x="285" y="610" width="60" height="30" as="geometry" />
        </mxCell>
        <mxCell id="n6n7o-bAXKP4Zn80dGMA-166" value="(0, 0)" style="text;html=1;align=center;verticalAlign=middle;whiteSpace=wrap;rounded=0;fontStyle=1" vertex="1" parent="1">
          <mxGeometry x="445" y="460" width="60" height="30" as="geometry" />
        </mxCell>
        <mxCell id="n6n7o-bAXKP4Zn80dGMA-167" value="(0, 1)" style="text;html=1;align=center;verticalAlign=middle;whiteSpace=wrap;rounded=0;fontStyle=1" vertex="1" parent="1">
          <mxGeometry x="525" y="460" width="60" height="30" as="geometry" />
        </mxCell>
        <mxCell id="n6n7o-bAXKP4Zn80dGMA-168" value="(0, 2)" style="text;html=1;align=center;verticalAlign=middle;whiteSpace=wrap;rounded=0;fontStyle=1" vertex="1" parent="1">
          <mxGeometry x="615" y="460" width="60" height="30" as="geometry" />
        </mxCell>
        <mxCell id="n6n7o-bAXKP4Zn80dGMA-169" value="(1, 0)" style="text;html=1;align=center;verticalAlign=middle;whiteSpace=wrap;rounded=0;fontStyle=1" vertex="1" parent="1">
          <mxGeometry x="455" y="540" width="60" height="30" as="geometry" />
        </mxCell>
        <mxCell id="n6n7o-bAXKP4Zn80dGMA-170" value="(1, 1)" style="text;html=1;align=center;verticalAlign=middle;whiteSpace=wrap;rounded=0;fontStyle=1" vertex="1" parent="1">
          <mxGeometry x="525" y="540" width="60" height="30" as="geometry" />
        </mxCell>
        <mxCell id="n6n7o-bAXKP4Zn80dGMA-171" value="(1, 2)" style="text;html=1;align=center;verticalAlign=middle;whiteSpace=wrap;rounded=0;fontStyle=1" vertex="1" parent="1">
          <mxGeometry x="605" y="540" width="60" height="30" as="geometry" />
        </mxCell>
        <mxCell id="n6n7o-bAXKP4Zn80dGMA-172" value="(2, 0)" style="text;html=1;align=center;verticalAlign=middle;whiteSpace=wrap;rounded=0;fontStyle=1" vertex="1" parent="1">
          <mxGeometry x="455" y="610" width="60" height="30" as="geometry" />
        </mxCell>
        <mxCell id="n6n7o-bAXKP4Zn80dGMA-173" value="(2, 1)" style="text;html=1;align=center;verticalAlign=middle;whiteSpace=wrap;rounded=0;fontStyle=1" vertex="1" parent="1">
          <mxGeometry x="525" y="610" width="60" height="30" as="geometry" />
        </mxCell>
        <mxCell id="n6n7o-bAXKP4Zn80dGMA-174" value="(2, 2)" style="text;html=1;align=center;verticalAlign=middle;whiteSpace=wrap;rounded=0;fontStyle=1" vertex="1" parent="1">
          <mxGeometry x="605" y="610" width="60" height="30" as="geometry" />
        </mxCell>
        <mxCell id="n6n7o-bAXKP4Zn80dGMA-175" value="(0, 0)" style="text;html=1;align=center;verticalAlign=middle;whiteSpace=wrap;rounded=0;fontStyle=1" vertex="1" parent="1">
          <mxGeometry x="770" y="460" width="60" height="30" as="geometry" />
        </mxCell>
        <mxCell id="n6n7o-bAXKP4Zn80dGMA-176" value="(0, 1)" style="text;html=1;align=center;verticalAlign=middle;whiteSpace=wrap;rounded=0;fontStyle=1" vertex="1" parent="1">
          <mxGeometry x="850" y="460" width="60" height="30" as="geometry" />
        </mxCell>
        <mxCell id="n6n7o-bAXKP4Zn80dGMA-177" value="(0, 2)" style="text;html=1;align=center;verticalAlign=middle;whiteSpace=wrap;rounded=0;fontStyle=1" vertex="1" parent="1">
          <mxGeometry x="940" y="460" width="60" height="30" as="geometry" />
        </mxCell>
        <mxCell id="n6n7o-bAXKP4Zn80dGMA-178" value="(1, 0)" style="text;html=1;align=center;verticalAlign=middle;whiteSpace=wrap;rounded=0;fontStyle=1" vertex="1" parent="1">
          <mxGeometry x="780" y="540" width="60" height="30" as="geometry" />
        </mxCell>
        <mxCell id="n6n7o-bAXKP4Zn80dGMA-179" value="(1, 1)" style="text;html=1;align=center;verticalAlign=middle;whiteSpace=wrap;rounded=0;fontStyle=1" vertex="1" parent="1">
          <mxGeometry x="850" y="540" width="60" height="30" as="geometry" />
        </mxCell>
        <mxCell id="n6n7o-bAXKP4Zn80dGMA-180" value="(1, 2)" style="text;html=1;align=center;verticalAlign=middle;whiteSpace=wrap;rounded=0;fontStyle=1" vertex="1" parent="1">
          <mxGeometry x="930" y="540" width="60" height="30" as="geometry" />
        </mxCell>
        <mxCell id="n6n7o-bAXKP4Zn80dGMA-181" value="(2, 0)" style="text;html=1;align=center;verticalAlign=middle;whiteSpace=wrap;rounded=0;fontStyle=1" vertex="1" parent="1">
          <mxGeometry x="780" y="610" width="60" height="30" as="geometry" />
        </mxCell>
        <mxCell id="n6n7o-bAXKP4Zn80dGMA-182" value="(2, 1)" style="text;html=1;align=center;verticalAlign=middle;whiteSpace=wrap;rounded=0;fontStyle=1" vertex="1" parent="1">
          <mxGeometry x="850" y="610" width="60" height="30" as="geometry" />
        </mxCell>
        <mxCell id="n6n7o-bAXKP4Zn80dGMA-183" value="(2, 2)" style="text;html=1;align=center;verticalAlign=middle;whiteSpace=wrap;rounded=0;fontStyle=1" vertex="1" parent="1">
          <mxGeometry x="930" y="610" width="60" height="30" as="geometry" />
        </mxCell>
        <mxCell id="n6n7o-bAXKP4Zn80dGMA-184" value="" style="endArrow=classic;startArrow=classic;html=1;rounded=0;" edge="1" parent="1">
          <mxGeometry width="50" height="50" relative="1" as="geometry">
            <mxPoint x="26" y="720" as="sourcePoint" />
            <mxPoint x="26" y="80" as="targetPoint" />
          </mxGeometry>
        </mxCell>
        <mxCell id="n6n7o-bAXKP4Zn80dGMA-187" value="Text" style="edgeLabel;html=1;align=center;verticalAlign=middle;resizable=0;points=[];" vertex="1" connectable="0" parent="n6n7o-bAXKP4Zn80dGMA-184">
          <mxGeometry x="-0.0031" relative="1" as="geometry">
            <mxPoint as="offset" />
          </mxGeometry>
        </mxCell>
        <mxCell id="n6n7o-bAXKP4Zn80dGMA-188" value="&lt;font style=&quot;font-size: 14px;&quot;&gt;&lt;b&gt;gridDim.x = 2&lt;/b&gt;&lt;/font&gt;" style="edgeLabel;html=1;align=center;verticalAlign=middle;resizable=0;points=[];" vertex="1" connectable="0" parent="n6n7o-bAXKP4Zn80dGMA-184">
          <mxGeometry x="-0.0031" y="-2" relative="1" as="geometry">
            <mxPoint as="offset" />
          </mxGeometry>
        </mxCell>
        <mxCell id="n6n7o-bAXKP4Zn80dGMA-185" value="Text" style="text;html=1;align=center;verticalAlign=middle;whiteSpace=wrap;rounded=0;" vertex="1" parent="1">
          <mxGeometry x="410" y="360" width="60" height="30" as="geometry" />
        </mxCell>
        <mxCell id="n6n7o-bAXKP4Zn80dGMA-190" value="" style="endArrow=classic;startArrow=classic;html=1;rounded=0;" edge="1" parent="1">
          <mxGeometry width="50" height="50" relative="1" as="geometry">
            <mxPoint x="81.5" y="750" as="sourcePoint" />
            <mxPoint x="1042.5" y="750" as="targetPoint" />
          </mxGeometry>
        </mxCell>
        <mxCell id="n6n7o-bAXKP4Zn80dGMA-198" value="&lt;b style=&quot;font-size: 14px;&quot;&gt;gridDim.y = 3&lt;/b&gt;" style="edgeLabel;html=1;align=center;verticalAlign=middle;resizable=0;points=[];" vertex="1" connectable="0" parent="n6n7o-bAXKP4Zn80dGMA-190">
          <mxGeometry x="0.026" y="1" relative="1" as="geometry">
            <mxPoint as="offset" />
          </mxGeometry>
        </mxCell>
        <mxCell id="n6n7o-bAXKP4Zn80dGMA-192" value="" style="endArrow=classic;startArrow=classic;html=1;rounded=0;" edge="1" parent="1">
          <mxGeometry width="50" height="50" relative="1" as="geometry">
            <mxPoint x="96" y="360" as="sourcePoint" />
            <mxPoint x="96" y="120" as="targetPoint" />
          </mxGeometry>
        </mxCell>
        <mxCell id="n6n7o-bAXKP4Zn80dGMA-193" value="Text" style="edgeLabel;html=1;align=center;verticalAlign=middle;resizable=0;points=[];" vertex="1" connectable="0" parent="n6n7o-bAXKP4Zn80dGMA-192">
          <mxGeometry x="-0.0031" relative="1" as="geometry">
            <mxPoint as="offset" />
          </mxGeometry>
        </mxCell>
        <mxCell id="n6n7o-bAXKP4Zn80dGMA-194" value="&lt;font style=&quot;font-size: 14px;&quot;&gt;&lt;b&gt;blockDim.x = 3&lt;/b&gt;&lt;/font&gt;" style="edgeLabel;html=1;align=center;verticalAlign=middle;resizable=0;points=[];" vertex="1" connectable="0" parent="n6n7o-bAXKP4Zn80dGMA-192">
          <mxGeometry x="-0.0031" y="-2" relative="1" as="geometry">
            <mxPoint as="offset" />
          </mxGeometry>
        </mxCell>
        <mxCell id="n6n7o-bAXKP4Zn80dGMA-196" value="" style="endArrow=classic;startArrow=classic;html=1;rounded=0;" edge="1" parent="1">
          <mxGeometry width="50" height="50" relative="1" as="geometry">
            <mxPoint x="120" y="385" as="sourcePoint" />
            <mxPoint x="360" y="384.5" as="targetPoint" />
          </mxGeometry>
        </mxCell>
        <mxCell id="n6n7o-bAXKP4Zn80dGMA-197" value="&lt;b style=&quot;font-size: 14px;&quot;&gt;blockDim.y = 3&lt;/b&gt;" style="edgeLabel;html=1;align=center;verticalAlign=middle;resizable=0;points=[];" vertex="1" connectable="0" parent="n6n7o-bAXKP4Zn80dGMA-196">
          <mxGeometry x="-0.05" y="1" relative="1" as="geometry">
            <mxPoint as="offset" />
          </mxGeometry>
        </mxCell>
      </root>
    </mxGraphModel>
  </diagram>
</mxfile>
